<svg width="130" height="7" viewBox="0 0 130 7" fill="none" xmlns="http://www.w3.org/2000/svg">
<path d="M0 0.118455H1.59915V5.72534H5.06396V7.02835H0V0.118455Z" fill="white"/>
<path d="M15.5016 5.54766H12.2934L11.6814 7.02835H10.0428L13.1226 0.118455H14.702L17.7917 7.02835H16.1136L15.5016 5.54766ZM14.9982 4.33349L13.9025 1.68799L12.8067 4.33349H14.9982Z" fill="white"/>
<path d="M33.5121 0.118455L31.2516 7.02835H29.534L28.0138 2.34936L26.4443 7.02835H24.7366L22.4662 0.118455H24.1245L25.6842 4.97512L27.313 0.118455H28.7937L30.3731 5.01461L31.9821 0.118455H33.5121Z" fill="white"/>
<path d="M50.5232 7.1468C49.819 7.1468 49.1807 6.99545 48.6082 6.69273C48.0422 6.38343 47.5947 5.95896 47.2657 5.41933C46.9432 4.87312 46.782 4.25781 46.782 3.5734C46.782 2.88899 46.9432 2.27697 47.2657 1.73734C47.5947 1.19113 48.0422 0.766669 48.6082 0.46395C49.1807 0.15465 49.8223 0 50.5331 0C51.1319 0 51.6716 0.105294 52.152 0.315881C52.6389 0.526468 53.0469 0.829187 53.376 1.22404L52.3494 2.17168C51.8821 1.63205 51.303 1.36224 50.612 1.36224C50.1843 1.36224 49.8026 1.45766 49.467 1.6485C49.1313 1.83277 48.8681 2.09271 48.6773 2.42833C48.493 2.76396 48.4009 3.14565 48.4009 3.5734C48.4009 4.00116 48.493 4.38285 48.6773 4.71847C48.8681 5.05409 49.1313 5.31733 49.467 5.50817C49.8026 5.69244 50.1843 5.78457 50.612 5.78457C51.303 5.78457 51.8821 5.51146 52.3494 4.96525L53.376 5.9129C53.0469 6.31433 52.6389 6.62034 52.152 6.83092C51.665 7.04151 51.1221 7.1468 50.5232 7.1468Z" fill="white"/>
<path d="M62.5933 7.1468C61.876 7.1468 61.2278 6.99215 60.6487 6.68285C60.0761 6.37355 59.6253 5.94909 59.2963 5.40946C58.9738 4.86325 58.8126 4.25123 58.8126 3.5734C58.8126 2.89558 58.9738 2.28685 59.2963 1.74722C59.6253 1.20101 60.0761 0.77325 60.6487 0.46395C61.2278 0.15465 61.876 0 62.5933 0C63.3106 0 63.9555 0.15465 64.5281 0.46395C65.1006 0.77325 65.5514 1.20101 65.8804 1.74722C66.2095 2.28685 66.374 2.89558 66.374 3.5734C66.374 4.25123 66.2095 4.86325 65.8804 5.40946C65.5514 5.94909 65.1006 6.37355 64.5281 6.68285C63.9555 6.99215 63.3106 7.1468 62.5933 7.1468ZM62.5933 5.78457C63.0013 5.78457 63.3698 5.69244 63.6989 5.50817C64.0279 5.31733 64.2846 5.05409 64.4688 4.71847C64.6597 4.38285 64.7551 4.00116 64.7551 3.5734C64.7551 3.14565 64.6597 2.76396 64.4688 2.42833C64.2846 2.09271 64.0279 1.83277 63.6989 1.6485C63.3698 1.45766 63.0013 1.36224 62.5933 1.36224C62.1853 1.36224 61.8168 1.45766 61.4877 1.6485C61.1587 1.83277 60.8987 2.09271 60.7079 2.42833C60.5236 2.76396 60.4315 3.14565 60.4315 3.5734C60.4315 4.00116 60.5236 4.38285 60.7079 4.71847C60.8987 5.05409 61.1587 5.31733 61.4877 5.50817C61.8168 5.69244 62.1853 5.78457 62.5933 5.78457Z" fill="white"/>
<path d="M78.7995 7.02835L78.7896 2.88241L76.7561 6.29788H76.0355L74.0119 2.97125V7.02835H72.5115V0.118455H73.8342L76.4205 4.41246L78.9673 0.118455H80.2802L80.2999 7.02835H78.7995Z" fill="white"/>
<path d="M89.8659 0.118455C90.478 0.118455 91.0077 0.220458 91.4552 0.424465C91.9093 0.628471 92.2581 0.918029 92.5016 1.29314C92.7451 1.66825 92.8668 2.11245 92.8668 2.62576C92.8668 3.13249 92.7451 3.57669 92.5016 3.95838C92.2581 4.33349 91.9093 4.62305 91.4552 4.82706C91.0077 5.02448 90.478 5.12319 89.8659 5.12319H88.4741V7.02835H86.8749V0.118455H89.8659ZM89.7771 3.82018C90.2575 3.82018 90.6227 3.71818 90.8728 3.51418C91.1229 3.30359 91.2479 3.00745 91.2479 2.62576C91.2479 2.23749 91.1229 1.94135 90.8728 1.73734C90.6227 1.52676 90.2575 1.42146 89.7771 1.42146H88.4741V3.82018H89.7771Z" fill="white"/>
<path d="M103.148 5.54766H99.9396L99.3276 7.02835H97.6889L100.769 0.118455H102.348L105.438 7.02835H103.76L103.148 5.54766ZM102.644 4.33349L101.549 1.68799L100.453 4.33349H102.644Z" fill="white"/>
<path d="M117.428 0.118455V7.02835H116.115L112.67 2.83306V7.02835H111.09V0.118455H112.413L115.848 4.31375V0.118455H117.428Z" fill="white"/>
<path d="M127.315 4.58027V7.02835H125.716V4.56053L123.041 0.118455H124.739L126.585 3.18842L128.43 0.118455H130L127.315 4.58027Z" fill="white"/>
</svg>
